<?xml version="1.0" encoding="UTF-8" standalone="no"?>
<svg
   id="icons"
   viewBox="0 0 340 340"
   version="1.1"
   sodipodi:docname="book5.svg"
   inkscape:version="1.2.2 (732a01da63, 2022-12-09)"
   xmlns:inkscape="http://www.inkscape.org/namespaces/inkscape"
   xmlns:sodipodi="http://sodipodi.sourceforge.net/DTD/sodipodi-0.dtd"
   xmlns="http://www.w3.org/2000/svg"
   xmlns:svg="http://www.w3.org/2000/svg">
  <defs
     id="defs4168" />
  <sodipodi:namedview
     id="namedview4166"
     pagecolor="#ffffff"
     bordercolor="#000000"
     borderopacity="0.25"
     inkscape:showpageshadow="2"
     inkscape:pageopacity="0.0"
     inkscape:pagecheckerboard="0"
     inkscape:deskcolor="#d1d1d1"
     showgrid="false"
     inkscape:zoom="0.69411765"
     inkscape:cx="-172.16102"
     inkscape:cy="170.72034"
     inkscape:window-width="1920"
     inkscape:window-height="1013"
     inkscape:window-x="1991"
     inkscape:window-y="-9"
     inkscape:window-maximized="1"
     inkscape:current-layer="icons" />
  <polygon
     points="66.541,276.718 90.149,255.518 261.789,255.518 261.789,262.975 261.789,293.833 89.52,293.833 74.736,293.833 "
     style="display:inline;fill:#eaf5ff"
     id="polygon4139" />
  <path
     d="M 90.568,246.837 59.2,276.718 V 46.483 C 59.305,28.439 71.44,12.073 90.568,10 Z"
     style="display:inline;fill:#ff8a05;fill-opacity:1"
     id="path4141" />
  <path
     d="M 89.929,308.327 A 30.746,30.746 0 0 1 59.2,276.718 c 0.46,-16.747 13.379,-29.881 31.373,-29.881 h 190.244 v 8.494 a 7.644,7.644 0 0 1 -7.645,7.644 H 90.364 c -20.68,0.573 -21.166,29.977 -0.435,30.858 h 183.243 a 7.644,7.644 0 0 1 7.645,7.644 v 6.85 z"
     style="display:inline;fill:#ff8705;fill-opacity:1"
     id="path4143" />
  <path
     d="M 90.568,246.837 V 10 H 259.72 a 21.1,21.1 0 0 1 21.1,21.1 v 215.74 z"
     style="display:inline;fill:#eabc88;fill-opacity:1"
     id="path4145" />
  <path
     d="M261.46,274.337H94.74a3.25,3.25,0,0,0,0,6.49H261.46Z"
     style="fill:#c9d4ff"
     id="path4147" />
  <rect
     x="99.877"
     y="274.337"
     width="31.033"
     height="19.496"
     style="fill:#c9d4ff"
     id="rect4149" />
  <polygon
     points="109.312 274.337 109.312 326.755 130.91 316.743 152.509 326.755 152.509 274.337 109.312 274.337"
     style="fill:#f47676"
     id="polygon4151" />
  <path
     d="M265.264,297.833a4,4,0,0,1-3.449-1.968c-9.569-16.222-.491-33.994-.1-34.742,2.509-4.607,9.437-1.012,7.1,3.7-.1.186-7.375,14.656-.105,26.981A4.025,4.025,0,0,1,265.264,297.833Z"
     style="fill:#383a49"
     id="path4153" />
  <path
     d="M59.2,280.718a4,4,0,0,1-4-4V46.483A41.37,41.37,0,0,1,69.26,15.061,36.949,36.949,0,0,1,90.177,6.019,4,4,0,0,1,94.568,10V227.659c-.072,5.177-7.9,5.324-8,0V14.742c-13.942,3.5-23.516,17.2-23.373,31.741V276.718A4,4,0,0,1,59.2,280.718Z"
     style="fill:#383a49"
     id="path4155" />
  <path
     d="M109.311,312.327c-16.186-.277-31.791,2.716-44.287-10.518a34.49,34.49,0,0,1-9.827-25.2c.51-18.622,16.378-33.771,35.371-33.771H280.817a4,4,0,0,1,4,4v8.494a11.657,11.657,0,0,1-11.645,11.644H90.364c-10.127-.087-15.774,12.075-8.706,19.317a11.333,11.333,0,0,0,8.271,3.541h19.383c5.273.088,5.242,7.917,0,8H89.929a19.261,19.261,0,0,1-14.059-6.019C64,279.62,73.184,258.728,90.365,258.975H273.172a3.649,3.649,0,0,0,3.645-3.644v-4.494H90.568c-23.744-.1-36.45,28.51-19.81,45.394a26.535,26.535,0,0,0,19.171,8.1h19.382C114.562,304.407,114.572,312.243,109.311,312.327Z"
     style="fill:#383a49"
     id="path4157" />
  <path
     d="M280.817,312.327H168.642a4,4,0,0,1,0-8H276.817v-2.85a3.648,3.648,0,0,0-3.645-3.644H168.642c-5.206-.072-5.3-7.908,0-8h104.53a11.657,11.657,0,0,1,11.645,11.644v6.85A4,4,0,0,1,280.817,312.327Z"
     style="fill:#383a49"
     id="path4159" />
  <path
     d="M152.508,334c-.184.781-20.942-9.49-21.6-9.6l-19.916,9.233A4,4,0,0,1,105.311,330V277.582a4,4,0,0,1,4-4h43.2a4,4,0,0,1,4,4V330A4.026,4.026,0,0,1,152.508,334Zm-21.6-18.013c.565-.552,16.751,7.51,17.6,7.749V281.582h-35.2v42.154C114.222,323.473,130.286,315.456,130.91,315.987Z"
     style="fill:#383a49"
     id="path4161" />
  <path
     d="M280.817,250.837a4,4,0,0,1-4-4V31.1A17.116,17.116,0,0,0,259.72,14H90.568a4,4,0,0,1,0-8H259.72a25.125,25.125,0,0,1,25.1,25.1V246.837A4,4,0,0,1,280.817,250.837Z"
     style="fill:#383a49"
     id="path4163" />
</svg>
